<svg width="36" height="37" viewBox="0 0 36 37" fill="none" xmlns="http://www.w3.org/2000/svg">
<path d="M16.3125 8.9375C16.3125 8.02344 17.0156 7.25 18 7.25C18.9141 7.25 19.6875 8.02344 19.6875 8.9375V17.6562L25.6641 21.5938C26.4375 22.1562 26.6484 23.2109 26.0859 23.9844C25.5938 24.7578 24.5391 24.9688 23.7656 24.4062L17.0156 19.9062C16.5938 19.625 16.3125 19.0625 16.3125 18.5V8.9375ZM18 0.5C27.9141 0.5 36 8.58594 36 18.5C36 28.4844 27.9141 36.5 18 36.5C8.01562 36.5 0 28.4844 0 18.5C0 8.58594 8.01562 0.5 18 0.5ZM3.375 18.5C3.375 26.5859 9.91406 33.125 18 33.125C26.0156 33.125 32.625 26.5859 32.625 18.5C32.625 10.4844 26.0156 3.875 18 3.875C9.91406 3.875 3.375 10.4844 3.375 18.5Z" fill="black"/>
</svg>
