<svg width="27" height="37" viewBox="0 0 27 37" fill="none" xmlns="http://www.w3.org/2000/svg">
<path d="M0 2.1875C0 1.27344 0.703125 0.5 1.6875 0.5H25.3125C26.2266 0.5 27 1.27344 27 2.1875C27 3.17188 26.2266 3.875 25.3125 3.875H24.75V5.21094C24.75 8.09375 23.5547 10.7656 21.5859 12.8047L15.8203 18.5L21.5859 24.2656C23.5547 26.2344 24.75 28.9766 24.75 31.7891V33.125H25.3125C26.2266 33.125 27 33.8984 27 34.8125C27 35.7969 26.2266 36.5 25.3125 36.5H1.6875C0.703125 36.5 0 35.7969 0 34.8125C0 33.8984 0.703125 33.125 1.6875 33.125H2.25V31.7891C2.25 28.9766 3.375 26.2344 5.34375 24.2656L11.1094 18.5L5.34375 12.8047C3.375 10.7656 2.25 8.09375 2.25 5.21094V3.875H1.6875C0.703125 3.875 0 3.17188 0 2.1875ZM6.96094 27.5H19.9688C19.7578 27.2188 19.4766 26.9375 19.1953 26.6562L13.5 20.8906L7.73438 26.6562C7.45312 26.9375 7.17188 27.2188 6.96094 27.5ZM19.9688 9.5C20.8125 8.30469 21.375 6.82812 21.375 5.21094V3.875H5.625V5.21094C5.625 6.82812 6.11719 8.30469 6.96094 9.5H19.9688Z" fill="black"/>
</svg>
